:SAMPLES-PER-SECOND 30
:FULLY-SPECIFIED
:DEGREES
269
root  34.8964541 36.57664201 -14.07926965 10.66819096 -2.043810129 4.094948769
lowerback  -7.793039799 0.6309289932 0.2517131865
upperback  -4.367410183 1.415670037 -4.728466034
thorax  -0.0278040003 0.892481029 -4.932769775
lowerneck  -12.29889965 -8.330539703 -4.396319866
upperneck  13.03579998 -12.06239986 7.75868988
head  6.741179943 -5.585179806 1.979009986
lclavicle  0 -4.497500157e-015 -2.743230041e-014
lhumerus  -48.05920029 29.69050026 61.02709961
lradius  -0.00217946968 -6.507048965e-006 28.77330208
lwrist  3.192251654e-007 -3.790274832e-007 -29.91679955
lhand  -4.419541843e-031 -36.96720123 -10.38029957
lfingers  90 7.125020027 -90
lthumb  94.78460285 -25.2192499 101.1139209
rclavicle  0 -4.497500157e-015 -2.743230041e-014
rhumerus  29.74700165 -23.91090202 -39.34189987
rradius  -5.16745672e-007 2.214343908e-008 70.91619873
rwrist  0.0006954420824 -0.004670973402 -179.7189941
rhand  -1.767612612e-031 2.759769917 -5.35367012
rfingers  -90 -7.125020027 -90
rthumb  -84.37934459 -10.33840874 -61.26012046
rfemur  -11.56940746 13.94173813 12.05033875
rtibia  -0.3268547952 -1.34452343 18.28487015
rfoot  1.081901193 -21.5172863 -36.3274498
rtoes  3.789500055 19.65216168 -101.141769
lfemur  -3.585590601 -17.00491333 -23.26174355
ltibia  7.792098045 -0.03374287114 5.374653339
lfoot  0.4412000775 -21.421381 35.08777618
ltoes  -8.627379233 -18.1126513 -116.0141752
270
root  34.89593145 36.57761822 -14.07949192 10.65507889 -2.056132555 4.074172974
lowerback  -7.755810261 0.627276957 0.2202478945
upperback  -4.364089966 1.411139965 -4.723750114
thorax  -0.04589119926 0.8901690245 -4.913710117
lowerneck  -12.34309959 -8.294400215 -4.416619778
upperneck  13.08549976 -12.01720047 7.780670166
head  6.764570236 -5.560440063 1.991460085
lclavicle  0 -4.497500157e-015 -2.743230041e-014
lhumerus  -48.02299881 29.69120026 61.0625
lradius  -0.002870877739 -6.507048965e-006 28.79179764
lwrist  3.192251654e-007 -3.790274832e-007 -29.88559914
lhand  -4.421278997e-031 -36.99710083 -10.40019989
lfingers  90 7.125020027 -90
lthumb  94.80267051 -25.23774187 101.1475836
rclavicle  0 -4.497500157e-015 -2.743230041e-014
rhumerus  28.45410156 -23.9932003 -38.96440125
rradius  -5.16745672e-007 2.214343908e-008 72.41220093
rwrist  0.0006954420824 -0.004670973402 179.6529999
rhand  -1.767943699e-031 2.974050045 -5.416100025
rfingers  -90 -7.125020027 -90
rthumb  -84.35617278 -10.29343166 -61.05545454
rfemur  -11.53016853 13.92859173 12.06775475
rtibia  -0.309218049 -1.349802017 18.23187637
rfoot  1.105865002 -21.53355598 -36.30620193
rtoes  3.805782822 19.64913484 -101.1901887
lfemur  -3.752156973 -17.02999878 -23.17322159
ltibia  7.655788898 -0.03298215196 5.685866356
lfoot  0.4646671116 -21.52707291 35.10993195
ltoes  -8.64716539 -18.10346021 -116.0778352
271
root  34.89379282 36.57787353 -14.07980431 10.64424038 -2.077166796 4.042388439
lowerback  -7.739570141 0.622600913 0.1856387407
upperback  -4.356969833 1.40636003 -4.723659992
thorax  -0.04850019887 0.8881070018 -4.894410133
lowerneck  -12.37129974 -8.250709534 -4.410429955
upperneck  13.13669968 -11.96189976 7.772900105
head  6.781469822 -5.532159805 1.99240005
lclavicle  0 -4.497500157e-015 -2.743230041e-014
lhumerus  -48.00709915 29.6726017 61.11090088
lradius  -0.003770124167 -6.507048965e-006 28.84090042
lwrist  3.192251654e-007 -3.790274832e-007 -29.84790039
lhand  -4.420616235e-031 -36.9856987 -10.42650032
lfingers  90 7.125020027 -90
lthumb  94.80301312 -25.26397725 101.1378152
rclavicle  0 -4.497500157e-015 -2.743230041e-014
rhumerus  27.17170143 -24.03680229 -38.63940048
rradius  -5.16745672e-007 2.214343908e-008 73.81439972
rwrist  0.0006954420824 -0.004670973402 179.0899963
rhand  -1.768131753e-031 3.089119911 -4.974460125
rfingers  -90 -7.125020027 -90
rthumb  -84.10892776 -10.68472188 -60.90292682
rfemur  -11.49658585 13.91394997 12.09619045
rtibia  -0.2886752188 -1.345203519 18.17489433
rfoot  1.14693284 -21.53044128 -36.24822235
rtoes  3.786257412 19.65276285 -101.1321273
lfemur  -3.887303114 -17.00982094 -23.07992744
ltibia  7.545275211 0.003485567169 5.931854725
lfoot  0.4914806485 -21.69030571 35.13401031
ltoes  -8.647391629 -18.10335497 -116.0785632
272
root  34.89260336 36.57715865 -14.08001306 10.62800598 -2.079248905 4.035655022
lowerback  -7.731239319 0.6124889851 0.148750335
upperback  -4.347529888 1.392770052 -4.702219963
thorax  -0.0471435748 0.8811969757 -4.851860046
lowerneck  -12.40209961 -8.2042799 -4.429900169
upperneck  13.17949963 -11.8980999 7.776279926
head  6.797840118 -5.499939919 2.001810074
lclavicle  0 -4.497500157e-015 -2.743230041e-014
lhumerus  -47.98720169 29.65550041 61.17630005
lradius  -0.004715421237 -6.507048965e-006 28.8743
lwrist  3.192251654e-007 -3.790274832e-007 -29.84569931
lhand  -4.420796467e-031 -36.98880005 -10.47949982
lfingers  90 7.125020027 -90
lthumb  94.81579573 -25.31592275 101.1459791
rclavicle  0 -4.497500157e-015 -2.743230041e-014
rhumerus  25.81399727 -24.06749916 -38.22100067
rradius  -5.16745672e-007 2.214343908e-008 75.26429749
rwrist  0.0006954420824 -0.004670973402 178.5529938
rhand  -0 2.977999926 -4.927360058
rfingers  -90 -7.125020027 -90
rthumb  -84.11441704 -10.72123274 -61.00774743
rfemur  -11.4860878 13.92995167 12.10750866
rtibia  -0.2863632739 -1.32385993 18.18304634
rfoot  1.144524455 -21.50151062 -36.25876617
rtoes  3.775744678 19.65470817 -101.1008705
lfemur  -3.698975563 -16.9726181 -23.14455986
ltibia  7.680747509 0.009082373232 5.632104874
lfoot  0.4665432274 -21.58778381 35.14826202
ltoes  -8.665291673 -18.09501701 -116.1361821
273
root  34.8900442 36.57625454 -14.08022332 10.60887432 -2.079903603 4.020968437
lowerback  -7.729629517 0.6009010077 0.1404763162
upperback  -4.344795704 1.377660036 -4.698410034
thorax  -0.04673409835 0.8737159967 -4.844339848
lowerneck  -12.4052 -8.137869835 -4.418819904
upperneck  13.22369957 -11.81750107 7.787099838
head  6.807499886 -5.459350109 2.011820078
lclavicle  0 -4.497500157e-015 -2.743230041e-014
lhumerus  -48.02249908 29.66550064 61.1794014
lradius  -0.005704181734 -6.507048965e-006 28.92920113
lwrist  3.192251654e-007 -3.790274832e-007 -29.83390045
lhand  -4.420465287e-031 -36.98310089 -10.44009972
lfingers  90 7.125020027 -90
lthumb  94.8047209 -25.27743256 101.1362918
rclavicle  0 -4.497500157e-015 -2.743230041e-014
rhumerus  24.52459908 -24.19879913 -38.13380051
rradius  -5.16745672e-007 2.214343908e-008 76.69660187
rwrist  0.0006954420824 -0.004670973402 178.2440033
rhand  -1.767818571e-031 2.894939899 -4.727600098
rfingers  -90 -7.125020027 -90
rthumb  -84.03753935 -10.89259298 -61.07081049
rfemur  -11.46764088 13.95004082 12.12676144
rtibia  -0.2766188085 -1.307177067 18.18504333
rfoot  1.139558554 -21.49941826 -36.27414322
rtoes  3.796305749 19.6508982 -101.162006
lfemur  -3.413338423 -16.9446125 -23.23709869
ltibia  7.887918949 0.0003168371913 5.174377441
lfoot  0.4165078402 -21.3915863 35.15445709
ltoes  -8.605122327 -18.12295863 -115.9426031
